<mxfile host="app.diagrams.net" modified="2024-04-26T14:39:34.604Z" agent="Mozilla/5.0 (Windows NT 10.0; Win64; x64) AppleWebKit/537.36 (KHTML, like Gecko) Chrome/124.0.0.0 Safari/537.36" etag="uLL-GYy1-HqFHHtqqtsy" version="24.3.0" type="github">
  <diagram name="Page-1" id="rhyH5-ZiRPN7Cf6g0yFa">
    <mxGraphModel dx="1195" dy="615" grid="1" gridSize="10" guides="1" tooltips="1" connect="1" arrows="1" fold="1" page="1" pageScale="1" pageWidth="850" pageHeight="1100" math="0" shadow="0">
      <root>
        <mxCell id="0" />
        <mxCell id="1" parent="0" />
        <mxCell id="pPr2H10A3WoljT3qs_36-5" value="" style="edgeStyle=orthogonalEdgeStyle;rounded=0;orthogonalLoop=1;jettySize=auto;html=1;" parent="1" source="pPr2H10A3WoljT3qs_36-1" target="pPr2H10A3WoljT3qs_36-4" edge="1">
          <mxGeometry relative="1" as="geometry" />
        </mxCell>
        <mxCell id="pPr2H10A3WoljT3qs_36-1" value="Start" style="ellipse;whiteSpace=wrap;html=1;" parent="1" vertex="1">
          <mxGeometry x="360" y="70" width="120" height="80" as="geometry" />
        </mxCell>
        <mxCell id="pPr2H10A3WoljT3qs_36-7" value="" style="edgeStyle=orthogonalEdgeStyle;rounded=0;orthogonalLoop=1;jettySize=auto;html=1;" parent="1" source="pPr2H10A3WoljT3qs_36-4" target="pPr2H10A3WoljT3qs_36-6" edge="1">
          <mxGeometry relative="1" as="geometry" />
        </mxCell>
        <mxCell id="pPr2H10A3WoljT3qs_36-9" value="" style="edgeStyle=orthogonalEdgeStyle;rounded=0;orthogonalLoop=1;jettySize=auto;html=1;" parent="1" source="pPr2H10A3WoljT3qs_36-4" edge="1">
          <mxGeometry relative="1" as="geometry">
            <mxPoint x="420" y="350" as="targetPoint" />
          </mxGeometry>
        </mxCell>
        <mxCell id="pPr2H10A3WoljT3qs_36-4" value="Have an &lt;br&gt;Account?" style="shape=step;perimeter=stepPerimeter;whiteSpace=wrap;html=1;fixedSize=1;" parent="1" vertex="1">
          <mxGeometry x="360" y="230" width="120" height="80" as="geometry" />
        </mxCell>
        <mxCell id="pPr2H10A3WoljT3qs_36-12" value="" style="edgeStyle=orthogonalEdgeStyle;rounded=0;orthogonalLoop=1;jettySize=auto;html=1;entryX=1;entryY=0.5;entryDx=0;entryDy=0;exitX=0.5;exitY=1;exitDx=0;exitDy=0;" parent="1" source="pPr2H10A3WoljT3qs_36-6" edge="1">
          <mxGeometry relative="1" as="geometry">
            <mxPoint x="620" y="310" as="sourcePoint" />
            <mxPoint x="480" y="390" as="targetPoint" />
            <Array as="points">
              <mxPoint x="620" y="390" />
            </Array>
          </mxGeometry>
        </mxCell>
        <mxCell id="pPr2H10A3WoljT3qs_36-6" value="Sign Up" style="whiteSpace=wrap;html=1;" parent="1" vertex="1">
          <mxGeometry x="560" y="240" width="120" height="60" as="geometry" />
        </mxCell>
        <mxCell id="pPr2H10A3WoljT3qs_36-14" value="" style="edgeStyle=orthogonalEdgeStyle;rounded=0;orthogonalLoop=1;jettySize=auto;html=1;" parent="1" source="pPr2H10A3WoljT3qs_36-8" edge="1">
          <mxGeometry relative="1" as="geometry">
            <mxPoint x="420" y="440" as="targetPoint" />
          </mxGeometry>
        </mxCell>
        <mxCell id="pPr2H10A3WoljT3qs_36-8" value="Log In" style="whiteSpace=wrap;html=1;" parent="1" vertex="1">
          <mxGeometry x="360" y="350" width="120" height="60" as="geometry" />
        </mxCell>
        <mxCell id="pPr2H10A3WoljT3qs_36-16" value="" style="edgeStyle=orthogonalEdgeStyle;rounded=0;orthogonalLoop=1;jettySize=auto;html=1;" parent="1" source="pPr2H10A3WoljT3qs_36-13" edge="1">
          <mxGeometry relative="1" as="geometry">
            <mxPoint x="420" y="550" as="targetPoint" />
          </mxGeometry>
        </mxCell>
        <mxCell id="pPr2H10A3WoljT3qs_36-18" value="" style="edgeStyle=orthogonalEdgeStyle;rounded=0;orthogonalLoop=1;jettySize=auto;html=1;" parent="1" source="pPr2H10A3WoljT3qs_36-13" target="pPr2H10A3WoljT3qs_36-17" edge="1">
          <mxGeometry relative="1" as="geometry" />
        </mxCell>
        <mxCell id="pPr2H10A3WoljT3qs_36-13" value="Dashboard" style="whiteSpace=wrap;html=1;" parent="1" vertex="1">
          <mxGeometry x="340" y="440" width="160" height="60" as="geometry" />
        </mxCell>
        <mxCell id="pPr2H10A3WoljT3qs_36-20" value="" style="edgeStyle=orthogonalEdgeStyle;rounded=0;orthogonalLoop=1;jettySize=auto;html=1;" parent="1" source="pPr2H10A3WoljT3qs_36-15" edge="1">
          <mxGeometry relative="1" as="geometry">
            <mxPoint x="420" y="650" as="targetPoint" />
          </mxGeometry>
        </mxCell>
        <mxCell id="pPr2H10A3WoljT3qs_36-15" value="Make Booking" style="whiteSpace=wrap;html=1;" parent="1" vertex="1">
          <mxGeometry x="360" y="550" width="120" height="60" as="geometry" />
        </mxCell>
        <mxCell id="pPr2H10A3WoljT3qs_36-17" value="Check booking history" style="whiteSpace=wrap;html=1;" parent="1" vertex="1">
          <mxGeometry x="670" y="440" width="120" height="60" as="geometry" />
        </mxCell>
        <mxCell id="pPr2H10A3WoljT3qs_36-22" value="" style="edgeStyle=orthogonalEdgeStyle;rounded=0;orthogonalLoop=1;jettySize=auto;html=1;" parent="1" source="pPr2H10A3WoljT3qs_36-19" target="pPr2H10A3WoljT3qs_36-21" edge="1">
          <mxGeometry relative="1" as="geometry" />
        </mxCell>
        <mxCell id="pPr2H10A3WoljT3qs_36-19" value="View bookings" style="whiteSpace=wrap;html=1;" parent="1" vertex="1">
          <mxGeometry x="360" y="660" width="120" height="60" as="geometry" />
        </mxCell>
        <mxCell id="pPr2H10A3WoljT3qs_36-24" value="" style="edgeStyle=orthogonalEdgeStyle;rounded=0;orthogonalLoop=1;jettySize=auto;html=1;" parent="1" source="pPr2H10A3WoljT3qs_36-21" target="pPr2H10A3WoljT3qs_36-23" edge="1">
          <mxGeometry relative="1" as="geometry" />
        </mxCell>
        <mxCell id="pPr2H10A3WoljT3qs_36-28" value="" style="edgeStyle=orthogonalEdgeStyle;rounded=0;orthogonalLoop=1;jettySize=auto;html=1;" parent="1" source="pPr2H10A3WoljT3qs_36-21" edge="1">
          <mxGeometry relative="1" as="geometry">
            <mxPoint x="420" y="900" as="targetPoint" />
          </mxGeometry>
        </mxCell>
        <mxCell id="pPr2H10A3WoljT3qs_36-21" value="Action" style="rhombus;whiteSpace=wrap;html=1;" parent="1" vertex="1">
          <mxGeometry x="360" y="780" width="120" height="80" as="geometry" />
        </mxCell>
        <mxCell id="pPr2H10A3WoljT3qs_36-23" value="Delete Request" style="whiteSpace=wrap;html=1;" parent="1" vertex="1">
          <mxGeometry x="160" y="790" width="120" height="60" as="geometry" />
        </mxCell>
        <mxCell id="pPr2H10A3WoljT3qs_36-30" value="" style="edgeStyle=orthogonalEdgeStyle;rounded=0;orthogonalLoop=1;jettySize=auto;html=1;" parent="1" source="pPr2H10A3WoljT3qs_36-27" edge="1">
          <mxGeometry relative="1" as="geometry">
            <mxPoint x="420" y="1000" as="targetPoint" />
          </mxGeometry>
        </mxCell>
        <mxCell id="E9vS67JZ6F09hmWnQcjI-5" style="edgeStyle=orthogonalEdgeStyle;rounded=0;orthogonalLoop=1;jettySize=auto;html=1;entryX=0.5;entryY=0;entryDx=0;entryDy=0;" edge="1" parent="1" source="pPr2H10A3WoljT3qs_36-27" target="pPr2H10A3WoljT3qs_36-31">
          <mxGeometry relative="1" as="geometry" />
        </mxCell>
        <mxCell id="pPr2H10A3WoljT3qs_36-27" value="Transaction&lt;br&gt;Confirmation" style="whiteSpace=wrap;html=1;" parent="1" vertex="1">
          <mxGeometry x="350" y="900" width="140" height="60" as="geometry" />
        </mxCell>
        <mxCell id="pPr2H10A3WoljT3qs_36-29" value="Payment Transaction" style="whiteSpace=wrap;html=1;" parent="1" vertex="1">
          <mxGeometry x="330" y="1000" width="180" height="60" as="geometry" />
        </mxCell>
        <mxCell id="pPr2H10A3WoljT3qs_36-31" value="Cancel Transaction" style="whiteSpace=wrap;html=1;" parent="1" vertex="1">
          <mxGeometry x="570" y="1000" width="120" height="60" as="geometry" />
        </mxCell>
        <mxCell id="pPr2H10A3WoljT3qs_36-39" value="" style="endArrow=none;html=1;rounded=0;entryX=0.5;entryY=1;entryDx=0;entryDy=0;exitX=0.5;exitY=0;exitDx=0;exitDy=0;" parent="1" target="pPr2H10A3WoljT3qs_36-29" edge="1" source="pPr2H10A3WoljT3qs_36-40">
          <mxGeometry width="50" height="50" relative="1" as="geometry">
            <mxPoint x="420" y="1350" as="sourcePoint" />
            <mxPoint x="450" y="1160" as="targetPoint" />
          </mxGeometry>
        </mxCell>
        <mxCell id="pPr2H10A3WoljT3qs_36-45" value="" style="edgeStyle=orthogonalEdgeStyle;rounded=0;orthogonalLoop=1;jettySize=auto;html=1;" parent="1" source="pPr2H10A3WoljT3qs_36-40" target="pPr2H10A3WoljT3qs_36-44" edge="1">
          <mxGeometry relative="1" as="geometry" />
        </mxCell>
        <mxCell id="pPr2H10A3WoljT3qs_36-40" value="Log out" style="rounded=1;whiteSpace=wrap;html=1;" parent="1" vertex="1">
          <mxGeometry x="360" y="1270" width="120" height="60" as="geometry" />
        </mxCell>
        <mxCell id="pPr2H10A3WoljT3qs_36-42" value="" style="endArrow=classic;html=1;rounded=0;exitX=0.5;exitY=1;exitDx=0;exitDy=0;entryX=0.75;entryY=0;entryDx=0;entryDy=0;exitPerimeter=0;" parent="1" edge="1" target="pPr2H10A3WoljT3qs_36-40" source="pPr2H10A3WoljT3qs_36-31">
          <mxGeometry width="50" height="50" relative="1" as="geometry">
            <mxPoint x="630" y="1070" as="sourcePoint" />
            <mxPoint x="420" y="1350" as="targetPoint" />
          </mxGeometry>
        </mxCell>
        <mxCell id="pPr2H10A3WoljT3qs_36-43" value="" style="endArrow=classic;html=1;rounded=0;exitX=0.75;exitY=1;exitDx=0;exitDy=0;entryX=1;entryY=0.5;entryDx=0;entryDy=0;" parent="1" source="pPr2H10A3WoljT3qs_36-17" target="pPr2H10A3WoljT3qs_36-40" edge="1">
          <mxGeometry width="50" height="50" relative="1" as="geometry">
            <mxPoint x="500" y="780" as="sourcePoint" />
            <mxPoint x="740" y="1350" as="targetPoint" />
            <Array as="points">
              <mxPoint x="760" y="930" />
              <mxPoint x="760" y="1050" />
              <mxPoint x="760" y="1170" />
            </Array>
          </mxGeometry>
        </mxCell>
        <mxCell id="pPr2H10A3WoljT3qs_36-44" value="End" style="ellipse;whiteSpace=wrap;html=1;rounded=1;" parent="1" vertex="1">
          <mxGeometry x="345" y="1480" width="150" height="80" as="geometry" />
        </mxCell>
        <mxCell id="E9vS67JZ6F09hmWnQcjI-1" value="Yes" style="text;html=1;align=center;verticalAlign=middle;whiteSpace=wrap;rounded=0;" vertex="1" parent="1">
          <mxGeometry x="410" y="310" width="60" height="30" as="geometry" />
        </mxCell>
        <mxCell id="E9vS67JZ6F09hmWnQcjI-2" value="No" style="text;html=1;align=center;verticalAlign=middle;whiteSpace=wrap;rounded=0;" vertex="1" parent="1">
          <mxGeometry x="500" y="270" width="60" height="30" as="geometry" />
        </mxCell>
      </root>
    </mxGraphModel>
  </diagram>
</mxfile>
